<mxfile host="app.diagrams.net" agent="Mozilla/5.0 (Windows NT 10.0; Win64; x64) AppleWebKit/537.36 (KHTML, like Gecko) Chrome/136.0.0.0 Safari/537.36" version="26.1.3" pages="3">
  <diagram name="Page-1" id="Ejz9HAumZgK83RTZdqgG">
    <mxGraphModel dx="2306" dy="1055" grid="1" gridSize="10" guides="1" tooltips="1" connect="1" arrows="1" fold="1" page="1" pageScale="1" pageWidth="827" pageHeight="1169" math="0" shadow="0">
      <root>
        <mxCell id="0" />
        <mxCell id="1" parent="0" />
        <mxCell id="tGOmWX_7nEKrlkT7rGBy-5" style="edgeStyle=orthogonalEdgeStyle;rounded=0;orthogonalLoop=1;jettySize=auto;html=1;exitX=0.5;exitY=1;exitDx=0;exitDy=0;entryX=0.5;entryY=0;entryDx=0;entryDy=0;" edge="1" parent="1" source="tGOmWX_7nEKrlkT7rGBy-1" target="tGOmWX_7nEKrlkT7rGBy-4">
          <mxGeometry relative="1" as="geometry" />
        </mxCell>
        <mxCell id="tGOmWX_7nEKrlkT7rGBy-1" value="Start" style="ellipse;whiteSpace=wrap;html=1;" vertex="1" parent="1">
          <mxGeometry x="376" y="105" width="80" height="30" as="geometry" />
        </mxCell>
        <mxCell id="tGOmWX_7nEKrlkT7rGBy-8" value="No" style="edgeStyle=orthogonalEdgeStyle;rounded=0;orthogonalLoop=1;jettySize=auto;html=1;exitX=1;exitY=0.5;exitDx=0;exitDy=0;entryX=0;entryY=0.5;entryDx=0;entryDy=0;" edge="1" parent="1" source="tGOmWX_7nEKrlkT7rGBy-4" target="tGOmWX_7nEKrlkT7rGBy-6">
          <mxGeometry relative="1" as="geometry" />
        </mxCell>
        <mxCell id="tGOmWX_7nEKrlkT7rGBy-10" value="Yes" style="edgeStyle=orthogonalEdgeStyle;rounded=0;orthogonalLoop=1;jettySize=auto;html=1;exitX=0.5;exitY=1;exitDx=0;exitDy=0;entryX=0.5;entryY=0;entryDx=0;entryDy=0;" edge="1" parent="1" source="tGOmWX_7nEKrlkT7rGBy-4" target="tGOmWX_7nEKrlkT7rGBy-9">
          <mxGeometry relative="1" as="geometry" />
        </mxCell>
        <mxCell id="tGOmWX_7nEKrlkT7rGBy-4" value="Shells &amp;gt; 0&amp;nbsp;" style="rhombus;whiteSpace=wrap;html=1;" vertex="1" parent="1">
          <mxGeometry x="376" y="160" width="80" height="40" as="geometry" />
        </mxCell>
        <mxCell id="k7tGykT7P_zKiCpvmg7Y-1" style="edgeStyle=orthogonalEdgeStyle;rounded=0;orthogonalLoop=1;jettySize=auto;html=1;exitX=1;exitY=0.5;exitDx=0;exitDy=0;entryX=0.5;entryY=0;entryDx=0;entryDy=0;" edge="1" parent="1" source="tGOmWX_7nEKrlkT7rGBy-6" target="tGOmWX_7nEKrlkT7rGBy-45">
          <mxGeometry relative="1" as="geometry" />
        </mxCell>
        <mxCell id="tGOmWX_7nEKrlkT7rGBy-6" value="Print &quot;Robot has no shells left!&quot;" style="shape=parallelogram;perimeter=parallelogramPerimeter;whiteSpace=wrap;html=1;fixedSize=1;" vertex="1" parent="1">
          <mxGeometry x="530" y="155" width="130" height="50" as="geometry" />
        </mxCell>
        <mxCell id="tGOmWX_7nEKrlkT7rGBy-12" style="edgeStyle=orthogonalEdgeStyle;rounded=0;orthogonalLoop=1;jettySize=auto;html=1;exitX=0.5;exitY=1;exitDx=0;exitDy=0;entryX=0.5;entryY=0;entryDx=0;entryDy=0;" edge="1" parent="1" source="tGOmWX_7nEKrlkT7rGBy-9" target="tGOmWX_7nEKrlkT7rGBy-11">
          <mxGeometry relative="1" as="geometry" />
        </mxCell>
        <mxCell id="tGOmWX_7nEKrlkT7rGBy-9" value="Print &quot;Robot shoots at (x, y)!&quot;" style="shape=parallelogram;perimeter=parallelogramPerimeter;whiteSpace=wrap;html=1;fixedSize=1;" vertex="1" parent="1">
          <mxGeometry x="354" y="250" width="124" height="60" as="geometry" />
        </mxCell>
        <mxCell id="tGOmWX_7nEKrlkT7rGBy-14" style="edgeStyle=orthogonalEdgeStyle;rounded=0;orthogonalLoop=1;jettySize=auto;html=1;exitX=0.5;exitY=1;exitDx=0;exitDy=0;entryX=0.5;entryY=0;entryDx=0;entryDy=0;" edge="1" parent="1" source="tGOmWX_7nEKrlkT7rGBy-11" target="tGOmWX_7nEKrlkT7rGBy-13">
          <mxGeometry relative="1" as="geometry" />
        </mxCell>
        <mxCell id="tGOmWX_7nEKrlkT7rGBy-11" value="Shells = Shells - 1" style="rounded=0;whiteSpace=wrap;html=1;" vertex="1" parent="1">
          <mxGeometry x="354" y="330" width="120" height="60" as="geometry" />
        </mxCell>
        <mxCell id="tGOmWX_7nEKrlkT7rGBy-16" style="edgeStyle=orthogonalEdgeStyle;rounded=0;orthogonalLoop=1;jettySize=auto;html=1;exitX=1;exitY=0.5;exitDx=0;exitDy=0;" edge="1" parent="1" source="tGOmWX_7nEKrlkT7rGBy-13" target="tGOmWX_7nEKrlkT7rGBy-15">
          <mxGeometry relative="1" as="geometry" />
        </mxCell>
        <mxCell id="tGOmWX_7nEKrlkT7rGBy-21" value="No" style="edgeLabel;html=1;align=center;verticalAlign=middle;resizable=0;points=[];" vertex="1" connectable="0" parent="tGOmWX_7nEKrlkT7rGBy-16">
          <mxGeometry x="-0.0671" y="-2" relative="1" as="geometry">
            <mxPoint as="offset" />
          </mxGeometry>
        </mxCell>
        <mxCell id="tGOmWX_7nEKrlkT7rGBy-23" value="Yes" style="edgeStyle=orthogonalEdgeStyle;rounded=0;orthogonalLoop=1;jettySize=auto;html=1;exitX=0.5;exitY=1;exitDx=0;exitDy=0;entryX=0.5;entryY=0;entryDx=0;entryDy=0;" edge="1" parent="1" source="tGOmWX_7nEKrlkT7rGBy-13" target="tGOmWX_7nEKrlkT7rGBy-24">
          <mxGeometry relative="1" as="geometry">
            <mxPoint x="414" y="630" as="targetPoint" />
          </mxGeometry>
        </mxCell>
        <mxCell id="tGOmWX_7nEKrlkT7rGBy-13" value="Is target adjacent?" style="rhombus;whiteSpace=wrap;html=1;" vertex="1" parent="1">
          <mxGeometry x="376" y="410" width="76" height="80" as="geometry" />
        </mxCell>
        <mxCell id="tGOmWX_7nEKrlkT7rGBy-18" style="edgeStyle=orthogonalEdgeStyle;rounded=0;orthogonalLoop=1;jettySize=auto;html=1;exitX=0.5;exitY=1;exitDx=0;exitDy=0;entryX=0.5;entryY=0;entryDx=0;entryDy=0;" edge="1" parent="1" source="tGOmWX_7nEKrlkT7rGBy-15" target="tGOmWX_7nEKrlkT7rGBy-17">
          <mxGeometry relative="1" as="geometry" />
        </mxCell>
        <mxCell id="tGOmWX_7nEKrlkT7rGBy-15" value="Print &quot;Target not in adjacent position, shot missed!&quot;" style="shape=parallelogram;perimeter=parallelogramPerimeter;whiteSpace=wrap;html=1;fixedSize=1;" vertex="1" parent="1">
          <mxGeometry x="548" y="420" width="120" height="60" as="geometry" />
        </mxCell>
        <mxCell id="tGOmWX_7nEKrlkT7rGBy-20" value="Yes" style="edgeStyle=orthogonalEdgeStyle;rounded=0;orthogonalLoop=1;jettySize=auto;html=1;exitX=0.5;exitY=1;exitDx=0;exitDy=0;entryX=0.5;entryY=0;entryDx=0;entryDy=0;" edge="1" parent="1" source="tGOmWX_7nEKrlkT7rGBy-17" target="tGOmWX_7nEKrlkT7rGBy-19">
          <mxGeometry relative="1" as="geometry" />
        </mxCell>
        <mxCell id="tGOmWX_7nEKrlkT7rGBy-46" value="No" style="edgeStyle=orthogonalEdgeStyle;rounded=0;orthogonalLoop=1;jettySize=auto;html=1;exitX=1;exitY=0.5;exitDx=0;exitDy=0;entryX=0;entryY=0.5;entryDx=0;entryDy=0;" edge="1" parent="1" source="tGOmWX_7nEKrlkT7rGBy-17" target="tGOmWX_7nEKrlkT7rGBy-45">
          <mxGeometry relative="1" as="geometry" />
        </mxCell>
        <mxCell id="tGOmWX_7nEKrlkT7rGBy-17" value="Shells = 0?" style="rhombus;whiteSpace=wrap;html=1;" vertex="1" parent="1">
          <mxGeometry x="570" y="584" width="76" height="80" as="geometry" />
        </mxCell>
        <mxCell id="tGOmWX_7nEKrlkT7rGBy-47" style="edgeStyle=orthogonalEdgeStyle;rounded=0;orthogonalLoop=1;jettySize=auto;html=1;exitX=1;exitY=0.5;exitDx=0;exitDy=0;entryX=0.5;entryY=1;entryDx=0;entryDy=0;" edge="1" parent="1" source="tGOmWX_7nEKrlkT7rGBy-19" target="1cFGpqWlJRZ5VuCoBHFK-2">
          <mxGeometry relative="1" as="geometry">
            <mxPoint x="730" y="730" as="targetPoint" />
          </mxGeometry>
        </mxCell>
        <mxCell id="tGOmWX_7nEKrlkT7rGBy-19" value="Print &quot;Robot is out of ammo and self-destructs!&quot;" style="shape=parallelogram;perimeter=parallelogramPerimeter;whiteSpace=wrap;html=1;fixedSize=1;" vertex="1" parent="1">
          <mxGeometry x="550" y="740" width="120" height="60" as="geometry" />
        </mxCell>
        <mxCell id="tGOmWX_7nEKrlkT7rGBy-26" style="edgeStyle=orthogonalEdgeStyle;rounded=0;orthogonalLoop=1;jettySize=auto;html=1;exitX=0.5;exitY=1;exitDx=0;exitDy=0;entryX=0.5;entryY=0;entryDx=0;entryDy=0;" edge="1" parent="1" source="tGOmWX_7nEKrlkT7rGBy-24" target="tGOmWX_7nEKrlkT7rGBy-25">
          <mxGeometry relative="1" as="geometry" />
        </mxCell>
        <mxCell id="tGOmWX_7nEKrlkT7rGBy-24" value="Roll 70% chance hit" style="rounded=0;whiteSpace=wrap;html=1;" vertex="1" parent="1">
          <mxGeometry x="240" y="540" width="120" height="60" as="geometry" />
        </mxCell>
        <mxCell id="tGOmWX_7nEKrlkT7rGBy-30" style="edgeStyle=orthogonalEdgeStyle;rounded=0;orthogonalLoop=1;jettySize=auto;html=1;exitX=0.5;exitY=1;exitDx=0;exitDy=0;entryX=0.5;entryY=0;entryDx=0;entryDy=0;" edge="1" parent="1" source="tGOmWX_7nEKrlkT7rGBy-25" target="tGOmWX_7nEKrlkT7rGBy-29">
          <mxGeometry relative="1" as="geometry" />
        </mxCell>
        <mxCell id="tGOmWX_7nEKrlkT7rGBy-31" value="Yes" style="edgeLabel;html=1;align=center;verticalAlign=middle;resizable=0;points=[];" vertex="1" connectable="0" parent="tGOmWX_7nEKrlkT7rGBy-30">
          <mxGeometry x="-0.4173" y="1" relative="1" as="geometry">
            <mxPoint as="offset" />
          </mxGeometry>
        </mxCell>
        <mxCell id="tGOmWX_7nEKrlkT7rGBy-37" value="No" style="edgeStyle=orthogonalEdgeStyle;rounded=0;orthogonalLoop=1;jettySize=auto;html=1;exitX=1;exitY=0.5;exitDx=0;exitDy=0;entryX=0;entryY=0.5;entryDx=0;entryDy=0;" edge="1" parent="1" source="tGOmWX_7nEKrlkT7rGBy-25" target="tGOmWX_7nEKrlkT7rGBy-36">
          <mxGeometry relative="1" as="geometry" />
        </mxCell>
        <mxCell id="tGOmWX_7nEKrlkT7rGBy-25" value="Within 70%?" style="rhombus;whiteSpace=wrap;html=1;" vertex="1" parent="1">
          <mxGeometry x="260" y="640" width="80" height="80" as="geometry" />
        </mxCell>
        <mxCell id="tGOmWX_7nEKrlkT7rGBy-33" style="edgeStyle=orthogonalEdgeStyle;rounded=0;orthogonalLoop=1;jettySize=auto;html=1;exitX=0.5;exitY=1;exitDx=0;exitDy=0;entryX=0.5;entryY=0;entryDx=0;entryDy=0;" edge="1" parent="1" source="tGOmWX_7nEKrlkT7rGBy-29" target="tGOmWX_7nEKrlkT7rGBy-32">
          <mxGeometry relative="1" as="geometry" />
        </mxCell>
        <mxCell id="tGOmWX_7nEKrlkT7rGBy-29" value="Set life = 0&lt;br&gt;Robot kills ++" style="rounded=0;whiteSpace=wrap;html=1;" vertex="1" parent="1">
          <mxGeometry x="240" y="770" width="120" height="60" as="geometry" />
        </mxCell>
        <mxCell id="tGOmWX_7nEKrlkT7rGBy-41" style="edgeStyle=orthogonalEdgeStyle;rounded=0;orthogonalLoop=1;jettySize=auto;html=1;exitX=1;exitY=0.5;exitDx=0;exitDy=0;entryX=0.5;entryY=1;entryDx=0;entryDy=0;" edge="1" parent="1" source="tGOmWX_7nEKrlkT7rGBy-32" target="tGOmWX_7nEKrlkT7rGBy-38">
          <mxGeometry relative="1" as="geometry" />
        </mxCell>
        <mxCell id="tGOmWX_7nEKrlkT7rGBy-32" value="Print &quot;Direct hit! Target was destroyed!&quot;" style="shape=parallelogram;perimeter=parallelogramPerimeter;whiteSpace=wrap;html=1;fixedSize=1;" vertex="1" parent="1">
          <mxGeometry x="240" y="860" width="120" height="60" as="geometry" />
        </mxCell>
        <mxCell id="tGOmWX_7nEKrlkT7rGBy-40" style="edgeStyle=orthogonalEdgeStyle;rounded=0;orthogonalLoop=1;jettySize=auto;html=1;exitX=1;exitY=0.5;exitDx=0;exitDy=0;entryX=0;entryY=0.5;entryDx=0;entryDy=0;" edge="1" parent="1" source="tGOmWX_7nEKrlkT7rGBy-36" target="tGOmWX_7nEKrlkT7rGBy-38">
          <mxGeometry relative="1" as="geometry" />
        </mxCell>
        <mxCell id="tGOmWX_7nEKrlkT7rGBy-36" value="Print &quot;Shot missed the target!&quot;" style="shape=parallelogram;perimeter=parallelogramPerimeter;whiteSpace=wrap;html=1;fixedSize=1;" vertex="1" parent="1">
          <mxGeometry x="370" y="650" width="120" height="60" as="geometry" />
        </mxCell>
        <mxCell id="tGOmWX_7nEKrlkT7rGBy-39" style="edgeStyle=orthogonalEdgeStyle;rounded=0;orthogonalLoop=1;jettySize=auto;html=1;exitX=1;exitY=0.5;exitDx=0;exitDy=0;entryX=0;entryY=0.5;entryDx=0;entryDy=0;" edge="1" parent="1" source="tGOmWX_7nEKrlkT7rGBy-38" target="tGOmWX_7nEKrlkT7rGBy-17">
          <mxGeometry relative="1" as="geometry">
            <mxPoint x="590" y="623.8620689655172" as="targetPoint" />
          </mxGeometry>
        </mxCell>
        <mxCell id="tGOmWX_7nEKrlkT7rGBy-38" value="" style="ellipse;whiteSpace=wrap;html=1;aspect=fixed;" vertex="1" parent="1">
          <mxGeometry x="530" y="614" width="20" height="20" as="geometry" />
        </mxCell>
        <mxCell id="tGOmWX_7nEKrlkT7rGBy-44" value="End" style="ellipse;whiteSpace=wrap;html=1;" vertex="1" parent="1">
          <mxGeometry x="414" y="910" width="80" height="30" as="geometry" />
        </mxCell>
        <mxCell id="tGOmWX_7nEKrlkT7rGBy-48" style="edgeStyle=orthogonalEdgeStyle;rounded=0;orthogonalLoop=1;jettySize=auto;html=1;exitX=1;exitY=0.5;exitDx=0;exitDy=0;entryX=1;entryY=0.5;entryDx=0;entryDy=0;" edge="1" parent="1" source="tGOmWX_7nEKrlkT7rGBy-45" target="tGOmWX_7nEKrlkT7rGBy-44">
          <mxGeometry relative="1" as="geometry" />
        </mxCell>
        <mxCell id="tGOmWX_7nEKrlkT7rGBy-45" value="" style="ellipse;whiteSpace=wrap;html=1;aspect=fixed;" vertex="1" parent="1">
          <mxGeometry x="720" y="614" width="20" height="20" as="geometry" />
        </mxCell>
        <mxCell id="1cFGpqWlJRZ5VuCoBHFK-3" style="edgeStyle=orthogonalEdgeStyle;rounded=0;orthogonalLoop=1;jettySize=auto;html=1;exitX=0.5;exitY=0;exitDx=0;exitDy=0;entryX=0.5;entryY=1;entryDx=0;entryDy=0;" edge="1" parent="1" source="1cFGpqWlJRZ5VuCoBHFK-2" target="tGOmWX_7nEKrlkT7rGBy-45">
          <mxGeometry relative="1" as="geometry" />
        </mxCell>
        <mxCell id="1cFGpqWlJRZ5VuCoBHFK-2" value="robotLife=0" style="rounded=0;whiteSpace=wrap;html=1;" vertex="1" parent="1">
          <mxGeometry x="680" y="680" width="66" height="40" as="geometry" />
        </mxCell>
      </root>
    </mxGraphModel>
  </diagram>
  <diagram id="5_Ov1qWz4Ytb0rC3G7oR" name="Page-2">
    <mxGraphModel dx="1764" dy="807" grid="1" gridSize="10" guides="1" tooltips="1" connect="1" arrows="1" fold="1" page="1" pageScale="1" pageWidth="827" pageHeight="1169" math="0" shadow="0">
      <root>
        <mxCell id="0" />
        <mxCell id="1" parent="0" />
        <mxCell id="DdCvxiDJwhQKyJjSyc2B-1" style="edgeStyle=orthogonalEdgeStyle;rounded=0;orthogonalLoop=1;jettySize=auto;html=1;exitX=0.5;exitY=1;exitDx=0;exitDy=0;entryX=0.5;entryY=0;entryDx=0;entryDy=0;" edge="1" parent="1" source="DdCvxiDJwhQKyJjSyc2B-2" target="DdCvxiDJwhQKyJjSyc2B-5">
          <mxGeometry relative="1" as="geometry" />
        </mxCell>
        <mxCell id="DdCvxiDJwhQKyJjSyc2B-2" value="Start" style="ellipse;whiteSpace=wrap;html=1;" vertex="1" parent="1">
          <mxGeometry x="374" y="90" width="80" height="30" as="geometry" />
        </mxCell>
        <mxCell id="DdCvxiDJwhQKyJjSyc2B-3" value="No" style="edgeStyle=orthogonalEdgeStyle;rounded=0;orthogonalLoop=1;jettySize=auto;html=1;exitX=1;exitY=0.5;exitDx=0;exitDy=0;entryX=0;entryY=0.5;entryDx=0;entryDy=0;" edge="1" parent="1" source="DdCvxiDJwhQKyJjSyc2B-5" target="DdCvxiDJwhQKyJjSyc2B-6">
          <mxGeometry relative="1" as="geometry" />
        </mxCell>
        <mxCell id="DdCvxiDJwhQKyJjSyc2B-4" value="Yes" style="edgeStyle=orthogonalEdgeStyle;rounded=0;orthogonalLoop=1;jettySize=auto;html=1;exitX=0.5;exitY=1;exitDx=0;exitDy=0;entryX=0.5;entryY=0;entryDx=0;entryDy=0;" edge="1" parent="1" source="DdCvxiDJwhQKyJjSyc2B-5" target="DdCvxiDJwhQKyJjSyc2B-8">
          <mxGeometry relative="1" as="geometry" />
        </mxCell>
        <mxCell id="DdCvxiDJwhQKyJjSyc2B-5" value="Shells &amp;gt; 0&amp;nbsp;" style="rhombus;whiteSpace=wrap;html=1;" vertex="1" parent="1">
          <mxGeometry x="374" y="155" width="80" height="40" as="geometry" />
        </mxCell>
        <mxCell id="b_pDd_8sROPzlRuGlxP1-1" style="edgeStyle=orthogonalEdgeStyle;rounded=0;orthogonalLoop=1;jettySize=auto;html=1;exitX=1;exitY=0.5;exitDx=0;exitDy=0;entryX=0.5;entryY=0;entryDx=0;entryDy=0;" edge="1" parent="1" source="DdCvxiDJwhQKyJjSyc2B-6" target="DdCvxiDJwhQKyJjSyc2B-38">
          <mxGeometry relative="1" as="geometry" />
        </mxCell>
        <mxCell id="DdCvxiDJwhQKyJjSyc2B-6" value="Print &quot;Robot has no shells left!&quot;" style="shape=parallelogram;perimeter=parallelogramPerimeter;whiteSpace=wrap;html=1;fixedSize=1;" vertex="1" parent="1">
          <mxGeometry x="530" y="150" width="130" height="50" as="geometry" />
        </mxCell>
        <mxCell id="DdCvxiDJwhQKyJjSyc2B-7" style="edgeStyle=orthogonalEdgeStyle;rounded=0;orthogonalLoop=1;jettySize=auto;html=1;exitX=0.5;exitY=1;exitDx=0;exitDy=0;entryX=0.5;entryY=0;entryDx=0;entryDy=0;" edge="1" parent="1" source="DdCvxiDJwhQKyJjSyc2B-8" target="DdCvxiDJwhQKyJjSyc2B-10">
          <mxGeometry relative="1" as="geometry" />
        </mxCell>
        <mxCell id="DdCvxiDJwhQKyJjSyc2B-8" value="Print &quot;Robot shoots at (x, y) with long range!&quot;" style="shape=parallelogram;perimeter=parallelogramPerimeter;whiteSpace=wrap;html=1;fixedSize=1;" vertex="1" parent="1">
          <mxGeometry x="350" y="240" width="124" height="60" as="geometry" />
        </mxCell>
        <mxCell id="DdCvxiDJwhQKyJjSyc2B-9" style="edgeStyle=orthogonalEdgeStyle;rounded=0;orthogonalLoop=1;jettySize=auto;html=1;exitX=0.5;exitY=1;exitDx=0;exitDy=0;entryX=0.5;entryY=0;entryDx=0;entryDy=0;" edge="1" parent="1" source="DdCvxiDJwhQKyJjSyc2B-10" target="DdCvxiDJwhQKyJjSyc2B-14">
          <mxGeometry relative="1" as="geometry" />
        </mxCell>
        <mxCell id="DdCvxiDJwhQKyJjSyc2B-10" value="Shells = Shells - 1" style="rounded=0;whiteSpace=wrap;html=1;" vertex="1" parent="1">
          <mxGeometry x="354" y="330" width="120" height="60" as="geometry" />
        </mxCell>
        <mxCell id="DdCvxiDJwhQKyJjSyc2B-11" style="edgeStyle=orthogonalEdgeStyle;rounded=0;orthogonalLoop=1;jettySize=auto;html=1;exitX=1;exitY=0.5;exitDx=0;exitDy=0;" edge="1" parent="1" source="DdCvxiDJwhQKyJjSyc2B-14" target="DdCvxiDJwhQKyJjSyc2B-16">
          <mxGeometry relative="1" as="geometry" />
        </mxCell>
        <mxCell id="DdCvxiDJwhQKyJjSyc2B-12" value="No" style="edgeLabel;html=1;align=center;verticalAlign=middle;resizable=0;points=[];" vertex="1" connectable="0" parent="DdCvxiDJwhQKyJjSyc2B-11">
          <mxGeometry x="-0.0671" y="-2" relative="1" as="geometry">
            <mxPoint as="offset" />
          </mxGeometry>
        </mxCell>
        <mxCell id="DdCvxiDJwhQKyJjSyc2B-13" value="Yes" style="edgeStyle=orthogonalEdgeStyle;rounded=0;orthogonalLoop=1;jettySize=auto;html=1;exitX=0.5;exitY=1;exitDx=0;exitDy=0;entryX=0.5;entryY=0;entryDx=0;entryDy=0;" edge="1" parent="1" source="DdCvxiDJwhQKyJjSyc2B-14" target="DdCvxiDJwhQKyJjSyc2B-23">
          <mxGeometry relative="1" as="geometry">
            <mxPoint x="414" y="630" as="targetPoint" />
          </mxGeometry>
        </mxCell>
        <mxCell id="DdCvxiDJwhQKyJjSyc2B-14" value="Is target in range?" style="rhombus;whiteSpace=wrap;html=1;" vertex="1" parent="1">
          <mxGeometry x="376" y="410" width="76" height="80" as="geometry" />
        </mxCell>
        <mxCell id="DdCvxiDJwhQKyJjSyc2B-15" style="edgeStyle=orthogonalEdgeStyle;rounded=0;orthogonalLoop=1;jettySize=auto;html=1;exitX=0.5;exitY=1;exitDx=0;exitDy=0;entryX=0.5;entryY=0;entryDx=0;entryDy=0;" edge="1" parent="1" source="DdCvxiDJwhQKyJjSyc2B-16" target="DdCvxiDJwhQKyJjSyc2B-19">
          <mxGeometry relative="1" as="geometry" />
        </mxCell>
        <mxCell id="DdCvxiDJwhQKyJjSyc2B-16" value="Print &quot;Target out of long range, shot missed!&quot;" style="shape=parallelogram;perimeter=parallelogramPerimeter;whiteSpace=wrap;html=1;fixedSize=1;" vertex="1" parent="1">
          <mxGeometry x="552" y="420" width="120" height="60" as="geometry" />
        </mxCell>
        <mxCell id="DdCvxiDJwhQKyJjSyc2B-17" value="Yes" style="edgeStyle=orthogonalEdgeStyle;rounded=0;orthogonalLoop=1;jettySize=auto;html=1;exitX=0.5;exitY=1;exitDx=0;exitDy=0;entryX=0.5;entryY=0;entryDx=0;entryDy=0;" edge="1" parent="1" source="DdCvxiDJwhQKyJjSyc2B-19" target="DdCvxiDJwhQKyJjSyc2B-21">
          <mxGeometry relative="1" as="geometry" />
        </mxCell>
        <mxCell id="DdCvxiDJwhQKyJjSyc2B-18" value="No" style="edgeStyle=orthogonalEdgeStyle;rounded=0;orthogonalLoop=1;jettySize=auto;html=1;exitX=1;exitY=0.5;exitDx=0;exitDy=0;entryX=0;entryY=0.5;entryDx=0;entryDy=0;" edge="1" parent="1" source="DdCvxiDJwhQKyJjSyc2B-19" target="DdCvxiDJwhQKyJjSyc2B-38">
          <mxGeometry relative="1" as="geometry" />
        </mxCell>
        <mxCell id="DdCvxiDJwhQKyJjSyc2B-19" value="Shells = 0?" style="rhombus;whiteSpace=wrap;html=1;" vertex="1" parent="1">
          <mxGeometry x="574" y="584" width="76" height="80" as="geometry" />
        </mxCell>
        <mxCell id="DdCvxiDJwhQKyJjSyc2B-20" style="edgeStyle=orthogonalEdgeStyle;rounded=0;orthogonalLoop=1;jettySize=auto;html=1;exitX=1;exitY=0.5;exitDx=0;exitDy=0;entryX=0.5;entryY=1;entryDx=0;entryDy=0;" edge="1" parent="1" source="DdCvxiDJwhQKyJjSyc2B-21" target="FwAdlNRH8jgEsHpF8fvy-1">
          <mxGeometry relative="1" as="geometry">
            <mxPoint x="730" y="740" as="targetPoint" />
          </mxGeometry>
        </mxCell>
        <mxCell id="DdCvxiDJwhQKyJjSyc2B-21" value="Print &quot;Robot is out of ammo and self-destructs!&quot;" style="shape=parallelogram;perimeter=parallelogramPerimeter;whiteSpace=wrap;html=1;fixedSize=1;" vertex="1" parent="1">
          <mxGeometry x="552" y="740" width="120" height="60" as="geometry" />
        </mxCell>
        <mxCell id="DdCvxiDJwhQKyJjSyc2B-22" style="edgeStyle=orthogonalEdgeStyle;rounded=0;orthogonalLoop=1;jettySize=auto;html=1;exitX=0.5;exitY=1;exitDx=0;exitDy=0;entryX=0.5;entryY=0;entryDx=0;entryDy=0;" edge="1" parent="1" source="DdCvxiDJwhQKyJjSyc2B-23" target="DdCvxiDJwhQKyJjSyc2B-27">
          <mxGeometry relative="1" as="geometry" />
        </mxCell>
        <mxCell id="DdCvxiDJwhQKyJjSyc2B-23" value="Roll 70% chance hit" style="rounded=0;whiteSpace=wrap;html=1;" vertex="1" parent="1">
          <mxGeometry x="240" y="540" width="120" height="60" as="geometry" />
        </mxCell>
        <mxCell id="DdCvxiDJwhQKyJjSyc2B-24" style="edgeStyle=orthogonalEdgeStyle;rounded=0;orthogonalLoop=1;jettySize=auto;html=1;exitX=0.5;exitY=1;exitDx=0;exitDy=0;entryX=0.5;entryY=0;entryDx=0;entryDy=0;" edge="1" parent="1" source="DdCvxiDJwhQKyJjSyc2B-27" target="DdCvxiDJwhQKyJjSyc2B-29">
          <mxGeometry relative="1" as="geometry" />
        </mxCell>
        <mxCell id="DdCvxiDJwhQKyJjSyc2B-25" value="Yes" style="edgeLabel;html=1;align=center;verticalAlign=middle;resizable=0;points=[];" vertex="1" connectable="0" parent="DdCvxiDJwhQKyJjSyc2B-24">
          <mxGeometry x="-0.4173" y="1" relative="1" as="geometry">
            <mxPoint as="offset" />
          </mxGeometry>
        </mxCell>
        <mxCell id="DdCvxiDJwhQKyJjSyc2B-26" value="No" style="edgeStyle=orthogonalEdgeStyle;rounded=0;orthogonalLoop=1;jettySize=auto;html=1;exitX=1;exitY=0.5;exitDx=0;exitDy=0;entryX=0;entryY=0.5;entryDx=0;entryDy=0;" edge="1" parent="1" source="DdCvxiDJwhQKyJjSyc2B-27" target="DdCvxiDJwhQKyJjSyc2B-33">
          <mxGeometry relative="1" as="geometry" />
        </mxCell>
        <mxCell id="DdCvxiDJwhQKyJjSyc2B-27" value="Within 70%?" style="rhombus;whiteSpace=wrap;html=1;" vertex="1" parent="1">
          <mxGeometry x="260" y="640" width="80" height="80" as="geometry" />
        </mxCell>
        <mxCell id="DdCvxiDJwhQKyJjSyc2B-28" style="edgeStyle=orthogonalEdgeStyle;rounded=0;orthogonalLoop=1;jettySize=auto;html=1;exitX=0.5;exitY=1;exitDx=0;exitDy=0;entryX=0.5;entryY=0;entryDx=0;entryDy=0;" edge="1" parent="1" source="DdCvxiDJwhQKyJjSyc2B-29" target="DdCvxiDJwhQKyJjSyc2B-31">
          <mxGeometry relative="1" as="geometry" />
        </mxCell>
        <mxCell id="DdCvxiDJwhQKyJjSyc2B-29" value="Set life = 0&lt;br&gt;Robot kills ++" style="rounded=0;whiteSpace=wrap;html=1;" vertex="1" parent="1">
          <mxGeometry x="240" y="760" width="120" height="60" as="geometry" />
        </mxCell>
        <mxCell id="DdCvxiDJwhQKyJjSyc2B-30" style="edgeStyle=orthogonalEdgeStyle;rounded=0;orthogonalLoop=1;jettySize=auto;html=1;exitX=1;exitY=0.5;exitDx=0;exitDy=0;entryX=0.5;entryY=1;entryDx=0;entryDy=0;" edge="1" parent="1" source="DdCvxiDJwhQKyJjSyc2B-31" target="DdCvxiDJwhQKyJjSyc2B-35">
          <mxGeometry relative="1" as="geometry" />
        </mxCell>
        <mxCell id="DdCvxiDJwhQKyJjSyc2B-31" value="Print &quot;Long range hit! Target was destroyed!&quot;" style="shape=parallelogram;perimeter=parallelogramPerimeter;whiteSpace=wrap;html=1;fixedSize=1;" vertex="1" parent="1">
          <mxGeometry x="240" y="860" width="120" height="60" as="geometry" />
        </mxCell>
        <mxCell id="DdCvxiDJwhQKyJjSyc2B-32" style="edgeStyle=orthogonalEdgeStyle;rounded=0;orthogonalLoop=1;jettySize=auto;html=1;exitX=1;exitY=0.5;exitDx=0;exitDy=0;entryX=0;entryY=0.5;entryDx=0;entryDy=0;" edge="1" parent="1" source="DdCvxiDJwhQKyJjSyc2B-33" target="DdCvxiDJwhQKyJjSyc2B-35">
          <mxGeometry relative="1" as="geometry" />
        </mxCell>
        <mxCell id="DdCvxiDJwhQKyJjSyc2B-33" value="Print &quot;Long range shot missed the target!&quot;" style="shape=parallelogram;perimeter=parallelogramPerimeter;whiteSpace=wrap;html=1;fixedSize=1;" vertex="1" parent="1">
          <mxGeometry x="370" y="650" width="120" height="60" as="geometry" />
        </mxCell>
        <mxCell id="DdCvxiDJwhQKyJjSyc2B-34" style="edgeStyle=orthogonalEdgeStyle;rounded=0;orthogonalLoop=1;jettySize=auto;html=1;exitX=1;exitY=0.5;exitDx=0;exitDy=0;" edge="1" parent="1" source="DdCvxiDJwhQKyJjSyc2B-35">
          <mxGeometry relative="1" as="geometry">
            <mxPoint x="590" y="623.8620689655172" as="targetPoint" />
          </mxGeometry>
        </mxCell>
        <mxCell id="DdCvxiDJwhQKyJjSyc2B-35" value="" style="ellipse;whiteSpace=wrap;html=1;aspect=fixed;" vertex="1" parent="1">
          <mxGeometry x="530" y="614" width="20" height="20" as="geometry" />
        </mxCell>
        <mxCell id="DdCvxiDJwhQKyJjSyc2B-36" value="End" style="ellipse;whiteSpace=wrap;html=1;" vertex="1" parent="1">
          <mxGeometry x="410" y="920" width="80" height="30" as="geometry" />
        </mxCell>
        <mxCell id="DdCvxiDJwhQKyJjSyc2B-37" style="edgeStyle=orthogonalEdgeStyle;rounded=0;orthogonalLoop=1;jettySize=auto;html=1;exitX=1;exitY=0.5;exitDx=0;exitDy=0;entryX=1;entryY=0.5;entryDx=0;entryDy=0;" edge="1" parent="1" source="DdCvxiDJwhQKyJjSyc2B-38" target="DdCvxiDJwhQKyJjSyc2B-36">
          <mxGeometry relative="1" as="geometry" />
        </mxCell>
        <mxCell id="DdCvxiDJwhQKyJjSyc2B-38" value="" style="ellipse;whiteSpace=wrap;html=1;aspect=fixed;" vertex="1" parent="1">
          <mxGeometry x="720" y="614" width="20" height="20" as="geometry" />
        </mxCell>
        <mxCell id="FwAdlNRH8jgEsHpF8fvy-2" style="edgeStyle=orthogonalEdgeStyle;rounded=0;orthogonalLoop=1;jettySize=auto;html=1;exitX=0.5;exitY=0;exitDx=0;exitDy=0;entryX=0.5;entryY=1;entryDx=0;entryDy=0;" edge="1" parent="1" source="FwAdlNRH8jgEsHpF8fvy-1" target="DdCvxiDJwhQKyJjSyc2B-38">
          <mxGeometry relative="1" as="geometry" />
        </mxCell>
        <mxCell id="FwAdlNRH8jgEsHpF8fvy-1" value="robotLife=0" style="rounded=0;whiteSpace=wrap;html=1;" vertex="1" parent="1">
          <mxGeometry x="680" y="690" width="66" height="40" as="geometry" />
        </mxCell>
      </root>
    </mxGraphModel>
  </diagram>
  <diagram id="W1lQBHk8k0seOULAxB3w" name="Page-3">
    <mxGraphModel dx="2998" dy="1372" grid="1" gridSize="10" guides="1" tooltips="1" connect="1" arrows="1" fold="1" page="1" pageScale="1" pageWidth="827" pageHeight="1169" math="0" shadow="0">
      <root>
        <mxCell id="0" />
        <mxCell id="1" parent="0" />
        <mxCell id="S9Q4ZRymu22dXuJxWjsr-39" style="edgeStyle=orthogonalEdgeStyle;rounded=0;orthogonalLoop=1;jettySize=auto;html=1;exitX=0.5;exitY=1;exitDx=0;exitDy=0;entryX=0.5;entryY=0;entryDx=0;entryDy=0;" edge="1" parent="1" source="S9Q4ZRymu22dXuJxWjsr-40" target="S9Q4ZRymu22dXuJxWjsr-43">
          <mxGeometry relative="1" as="geometry" />
        </mxCell>
        <mxCell id="S9Q4ZRymu22dXuJxWjsr-40" value="Start" style="ellipse;whiteSpace=wrap;html=1;" vertex="1" parent="1">
          <mxGeometry x="384" y="120" width="80" height="30" as="geometry" />
        </mxCell>
        <mxCell id="S9Q4ZRymu22dXuJxWjsr-41" value="No" style="edgeStyle=orthogonalEdgeStyle;rounded=0;orthogonalLoop=1;jettySize=auto;html=1;exitX=1;exitY=0.5;exitDx=0;exitDy=0;entryX=0;entryY=0.5;entryDx=0;entryDy=0;" edge="1" parent="1" source="S9Q4ZRymu22dXuJxWjsr-43" target="S9Q4ZRymu22dXuJxWjsr-44">
          <mxGeometry relative="1" as="geometry" />
        </mxCell>
        <mxCell id="S9Q4ZRymu22dXuJxWjsr-42" value="Yes" style="edgeStyle=orthogonalEdgeStyle;rounded=0;orthogonalLoop=1;jettySize=auto;html=1;exitX=0.5;exitY=1;exitDx=0;exitDy=0;entryX=0.5;entryY=0;entryDx=0;entryDy=0;" edge="1" parent="1" source="S9Q4ZRymu22dXuJxWjsr-43" target="S9Q4ZRymu22dXuJxWjsr-46">
          <mxGeometry relative="1" as="geometry" />
        </mxCell>
        <mxCell id="S9Q4ZRymu22dXuJxWjsr-43" value="Shells &amp;gt; 0&amp;nbsp;" style="rhombus;whiteSpace=wrap;html=1;" vertex="1" parent="1">
          <mxGeometry x="384" y="180" width="80" height="40" as="geometry" />
        </mxCell>
        <mxCell id="S9Q4ZRymu22dXuJxWjsr-94" style="edgeStyle=orthogonalEdgeStyle;rounded=0;orthogonalLoop=1;jettySize=auto;html=1;exitX=1;exitY=0.5;exitDx=0;exitDy=0;entryX=0.5;entryY=0;entryDx=0;entryDy=0;" edge="1" parent="1" source="S9Q4ZRymu22dXuJxWjsr-44" target="S9Q4ZRymu22dXuJxWjsr-76">
          <mxGeometry relative="1" as="geometry" />
        </mxCell>
        <mxCell id="S9Q4ZRymu22dXuJxWjsr-44" value="Print &quot;Robot has no shells left!&quot;" style="shape=parallelogram;perimeter=parallelogramPerimeter;whiteSpace=wrap;html=1;fixedSize=1;" vertex="1" parent="1">
          <mxGeometry x="540" y="175" width="130" height="50" as="geometry" />
        </mxCell>
        <mxCell id="S9Q4ZRymu22dXuJxWjsr-45" style="edgeStyle=orthogonalEdgeStyle;rounded=0;orthogonalLoop=1;jettySize=auto;html=1;exitX=0.5;exitY=1;exitDx=0;exitDy=0;entryX=0.5;entryY=0;entryDx=0;entryDy=0;" edge="1" parent="1" source="S9Q4ZRymu22dXuJxWjsr-46" target="S9Q4ZRymu22dXuJxWjsr-48">
          <mxGeometry relative="1" as="geometry" />
        </mxCell>
        <mxCell id="S9Q4ZRymu22dXuJxWjsr-46" value="Print &quot;Robot fires 3-shot bursts at (x, y)!&quot;" style="shape=parallelogram;perimeter=parallelogramPerimeter;whiteSpace=wrap;html=1;fixedSize=1;" vertex="1" parent="1">
          <mxGeometry x="362" y="250" width="124" height="60" as="geometry" />
        </mxCell>
        <mxCell id="S9Q4ZRymu22dXuJxWjsr-47" style="edgeStyle=orthogonalEdgeStyle;rounded=0;orthogonalLoop=1;jettySize=auto;html=1;exitX=0.5;exitY=1;exitDx=0;exitDy=0;entryX=0.5;entryY=0;entryDx=0;entryDy=0;" edge="1" parent="1" source="S9Q4ZRymu22dXuJxWjsr-48" target="S9Q4ZRymu22dXuJxWjsr-52">
          <mxGeometry relative="1" as="geometry" />
        </mxCell>
        <mxCell id="S9Q4ZRymu22dXuJxWjsr-48" value="Shells = Shells - 1" style="rounded=0;whiteSpace=wrap;html=1;" vertex="1" parent="1">
          <mxGeometry x="364" y="340" width="120" height="60" as="geometry" />
        </mxCell>
        <mxCell id="S9Q4ZRymu22dXuJxWjsr-49" style="edgeStyle=orthogonalEdgeStyle;rounded=0;orthogonalLoop=1;jettySize=auto;html=1;exitX=1;exitY=0.5;exitDx=0;exitDy=0;" edge="1" parent="1" source="S9Q4ZRymu22dXuJxWjsr-52" target="S9Q4ZRymu22dXuJxWjsr-54">
          <mxGeometry relative="1" as="geometry" />
        </mxCell>
        <mxCell id="S9Q4ZRymu22dXuJxWjsr-50" value="No" style="edgeLabel;html=1;align=center;verticalAlign=middle;resizable=0;points=[];" vertex="1" connectable="0" parent="S9Q4ZRymu22dXuJxWjsr-49">
          <mxGeometry x="-0.0671" y="-2" relative="1" as="geometry">
            <mxPoint as="offset" />
          </mxGeometry>
        </mxCell>
        <mxCell id="S9Q4ZRymu22dXuJxWjsr-82" value="Yes" style="edgeStyle=orthogonalEdgeStyle;rounded=0;orthogonalLoop=1;jettySize=auto;html=1;exitX=0.5;exitY=1;exitDx=0;exitDy=0;entryX=0.5;entryY=0;entryDx=0;entryDy=0;" edge="1" parent="1" source="S9Q4ZRymu22dXuJxWjsr-52" target="S9Q4ZRymu22dXuJxWjsr-79">
          <mxGeometry relative="1" as="geometry" />
        </mxCell>
        <mxCell id="S9Q4ZRymu22dXuJxWjsr-52" value="Is target adjacent?" style="rhombus;whiteSpace=wrap;html=1;" vertex="1" parent="1">
          <mxGeometry x="386" y="420" width="76" height="80" as="geometry" />
        </mxCell>
        <mxCell id="S9Q4ZRymu22dXuJxWjsr-53" style="edgeStyle=orthogonalEdgeStyle;rounded=0;orthogonalLoop=1;jettySize=auto;html=1;exitX=0.5;exitY=1;exitDx=0;exitDy=0;entryX=0.5;entryY=0;entryDx=0;entryDy=0;" edge="1" parent="1" source="S9Q4ZRymu22dXuJxWjsr-54" target="S9Q4ZRymu22dXuJxWjsr-57">
          <mxGeometry relative="1" as="geometry" />
        </mxCell>
        <mxCell id="S9Q4ZRymu22dXuJxWjsr-54" value="Print &quot;Target not in adjacent position, burst shots missed!&quot;" style="shape=parallelogram;perimeter=parallelogramPerimeter;whiteSpace=wrap;html=1;fixedSize=1;" vertex="1" parent="1">
          <mxGeometry x="570" y="430" width="120" height="60" as="geometry" />
        </mxCell>
        <mxCell id="S9Q4ZRymu22dXuJxWjsr-55" value="Yes" style="edgeStyle=orthogonalEdgeStyle;rounded=0;orthogonalLoop=1;jettySize=auto;html=1;exitX=0.5;exitY=1;exitDx=0;exitDy=0;entryX=0.5;entryY=0;entryDx=0;entryDy=0;" edge="1" parent="1" source="S9Q4ZRymu22dXuJxWjsr-57" target="S9Q4ZRymu22dXuJxWjsr-59">
          <mxGeometry relative="1" as="geometry" />
        </mxCell>
        <mxCell id="S9Q4ZRymu22dXuJxWjsr-56" value="No" style="edgeStyle=orthogonalEdgeStyle;rounded=0;orthogonalLoop=1;jettySize=auto;html=1;exitX=1;exitY=0.5;exitDx=0;exitDy=0;entryX=0;entryY=0.5;entryDx=0;entryDy=0;" edge="1" parent="1" source="S9Q4ZRymu22dXuJxWjsr-57" target="S9Q4ZRymu22dXuJxWjsr-76">
          <mxGeometry relative="1" as="geometry" />
        </mxCell>
        <mxCell id="S9Q4ZRymu22dXuJxWjsr-57" value="Shells = 0?" style="rhombus;whiteSpace=wrap;html=1;" vertex="1" parent="1">
          <mxGeometry x="592" y="594" width="76" height="80" as="geometry" />
        </mxCell>
        <mxCell id="Ym8gr36TQVnxN2LM8_iP-2" style="edgeStyle=orthogonalEdgeStyle;rounded=0;orthogonalLoop=1;jettySize=auto;html=1;exitX=1;exitY=0.5;exitDx=0;exitDy=0;entryX=0.5;entryY=1;entryDx=0;entryDy=0;" edge="1" parent="1" source="S9Q4ZRymu22dXuJxWjsr-59" target="Ym8gr36TQVnxN2LM8_iP-1">
          <mxGeometry relative="1" as="geometry">
            <Array as="points">
              <mxPoint x="723" y="780" />
            </Array>
          </mxGeometry>
        </mxCell>
        <mxCell id="S9Q4ZRymu22dXuJxWjsr-59" value="Print &quot;Robot is out of ammo and self-destructs!&quot;" style="shape=parallelogram;perimeter=parallelogramPerimeter;whiteSpace=wrap;html=1;fixedSize=1;" vertex="1" parent="1">
          <mxGeometry x="570" y="750" width="120" height="60" as="geometry" />
        </mxCell>
        <mxCell id="S9Q4ZRymu22dXuJxWjsr-60" style="edgeStyle=orthogonalEdgeStyle;rounded=0;orthogonalLoop=1;jettySize=auto;html=1;exitX=0.5;exitY=1;exitDx=0;exitDy=0;entryX=0.5;entryY=0;entryDx=0;entryDy=0;" edge="1" parent="1" source="S9Q4ZRymu22dXuJxWjsr-61" target="S9Q4ZRymu22dXuJxWjsr-65">
          <mxGeometry relative="1" as="geometry" />
        </mxCell>
        <mxCell id="S9Q4ZRymu22dXuJxWjsr-61" value="Roll 70% chance hit" style="rounded=0;whiteSpace=wrap;html=1;" vertex="1" parent="1">
          <mxGeometry x="250" y="624" width="120" height="60" as="geometry" />
        </mxCell>
        <mxCell id="S9Q4ZRymu22dXuJxWjsr-62" style="edgeStyle=orthogonalEdgeStyle;rounded=0;orthogonalLoop=1;jettySize=auto;html=1;exitX=0.5;exitY=1;exitDx=0;exitDy=0;entryX=0.5;entryY=0;entryDx=0;entryDy=0;" edge="1" parent="1" source="S9Q4ZRymu22dXuJxWjsr-65" target="S9Q4ZRymu22dXuJxWjsr-67">
          <mxGeometry relative="1" as="geometry" />
        </mxCell>
        <mxCell id="S9Q4ZRymu22dXuJxWjsr-63" value="Yes" style="edgeLabel;html=1;align=center;verticalAlign=middle;resizable=0;points=[];" vertex="1" connectable="0" parent="S9Q4ZRymu22dXuJxWjsr-62">
          <mxGeometry x="-0.4173" y="1" relative="1" as="geometry">
            <mxPoint as="offset" />
          </mxGeometry>
        </mxCell>
        <mxCell id="NK0yrRHz17N-v0zj_TRn-3" style="edgeStyle=orthogonalEdgeStyle;rounded=0;orthogonalLoop=1;jettySize=auto;html=1;exitX=1;exitY=0.5;exitDx=0;exitDy=0;entryX=0.5;entryY=1;entryDx=0;entryDy=0;" edge="1" parent="1" source="S9Q4ZRymu22dXuJxWjsr-65" target="NK0yrRHz17N-v0zj_TRn-2">
          <mxGeometry relative="1" as="geometry">
            <mxPoint x="390" y="739.8333333333335" as="targetPoint" />
            <Array as="points">
              <mxPoint x="350" y="710" />
              <mxPoint x="424" y="710" />
            </Array>
          </mxGeometry>
        </mxCell>
        <mxCell id="NK0yrRHz17N-v0zj_TRn-4" value="No" style="edgeLabel;html=1;align=center;verticalAlign=middle;resizable=0;points=[];" vertex="1" connectable="0" parent="NK0yrRHz17N-v0zj_TRn-3">
          <mxGeometry x="-0.0379" relative="1" as="geometry">
            <mxPoint as="offset" />
          </mxGeometry>
        </mxCell>
        <mxCell id="S9Q4ZRymu22dXuJxWjsr-65" value="Within 70%?" style="rhombus;whiteSpace=wrap;html=1;" vertex="1" parent="1">
          <mxGeometry x="270" y="700" width="80" height="80" as="geometry" />
        </mxCell>
        <mxCell id="S9Q4ZRymu22dXuJxWjsr-66" style="edgeStyle=orthogonalEdgeStyle;rounded=0;orthogonalLoop=1;jettySize=auto;html=1;exitX=0.5;exitY=1;exitDx=0;exitDy=0;entryX=0.5;entryY=0;entryDx=0;entryDy=0;" edge="1" parent="1" source="S9Q4ZRymu22dXuJxWjsr-67" target="S9Q4ZRymu22dXuJxWjsr-69">
          <mxGeometry relative="1" as="geometry" />
        </mxCell>
        <mxCell id="S9Q4ZRymu22dXuJxWjsr-67" value="Set life = 0&lt;br&gt;Robot kills ++" style="rounded=0;whiteSpace=wrap;html=1;" vertex="1" parent="1">
          <mxGeometry x="250" y="820" width="120" height="60" as="geometry" />
        </mxCell>
        <mxCell id="S9Q4ZRymu22dXuJxWjsr-78" style="edgeStyle=orthogonalEdgeStyle;rounded=0;orthogonalLoop=1;jettySize=auto;html=1;exitX=0.5;exitY=1;exitDx=0;exitDy=0;entryX=0.5;entryY=0;entryDx=0;entryDy=0;" edge="1" parent="1" source="S9Q4ZRymu22dXuJxWjsr-69" target="S9Q4ZRymu22dXuJxWjsr-77">
          <mxGeometry relative="1" as="geometry" />
        </mxCell>
        <mxCell id="S9Q4ZRymu22dXuJxWjsr-69" value="Print &quot;Burst shot hit! Target was destroyed!&quot;" style="shape=parallelogram;perimeter=parallelogramPerimeter;whiteSpace=wrap;html=1;fixedSize=1;" vertex="1" parent="1">
          <mxGeometry x="250" y="910" width="120" height="60" as="geometry" />
        </mxCell>
        <mxCell id="S9Q4ZRymu22dXuJxWjsr-72" style="edgeStyle=orthogonalEdgeStyle;rounded=0;orthogonalLoop=1;jettySize=auto;html=1;exitX=1;exitY=0.5;exitDx=0;exitDy=0;" edge="1" parent="1" source="S9Q4ZRymu22dXuJxWjsr-73">
          <mxGeometry relative="1" as="geometry">
            <mxPoint x="600" y="633.8620689655172" as="targetPoint" />
          </mxGeometry>
        </mxCell>
        <mxCell id="S9Q4ZRymu22dXuJxWjsr-73" value="" style="ellipse;whiteSpace=wrap;html=1;aspect=fixed;" vertex="1" parent="1">
          <mxGeometry x="540" y="624" width="20" height="20" as="geometry" />
        </mxCell>
        <mxCell id="S9Q4ZRymu22dXuJxWjsr-74" value="End" style="ellipse;whiteSpace=wrap;html=1;" vertex="1" parent="1">
          <mxGeometry x="420" y="990" width="80" height="30" as="geometry" />
        </mxCell>
        <mxCell id="S9Q4ZRymu22dXuJxWjsr-75" style="edgeStyle=orthogonalEdgeStyle;rounded=0;orthogonalLoop=1;jettySize=auto;html=1;exitX=1;exitY=0.5;exitDx=0;exitDy=0;entryX=1;entryY=0.5;entryDx=0;entryDy=0;" edge="1" parent="1" source="S9Q4ZRymu22dXuJxWjsr-76" target="S9Q4ZRymu22dXuJxWjsr-74">
          <mxGeometry relative="1" as="geometry" />
        </mxCell>
        <mxCell id="S9Q4ZRymu22dXuJxWjsr-76" value="" style="ellipse;whiteSpace=wrap;html=1;aspect=fixed;" vertex="1" parent="1">
          <mxGeometry x="730" y="624" width="20" height="20" as="geometry" />
        </mxCell>
        <mxCell id="NK0yrRHz17N-v0zj_TRn-1" style="edgeStyle=orthogonalEdgeStyle;rounded=0;orthogonalLoop=1;jettySize=auto;html=1;exitX=1;exitY=0.5;exitDx=0;exitDy=0;entryX=0.5;entryY=1;entryDx=0;entryDy=0;" edge="1" parent="1" source="S9Q4ZRymu22dXuJxWjsr-77" target="S9Q4ZRymu22dXuJxWjsr-73">
          <mxGeometry relative="1" as="geometry">
            <mxPoint x="400" y="850" as="targetPoint" />
            <Array as="points">
              <mxPoint x="400" y="1010" />
              <mxPoint x="400" y="960" />
              <mxPoint x="550" y="960" />
            </Array>
          </mxGeometry>
        </mxCell>
        <mxCell id="S9Q4ZRymu22dXuJxWjsr-77" value="targetDestroyed = true" style="rounded=0;whiteSpace=wrap;html=1;" vertex="1" parent="1">
          <mxGeometry x="234" y="990" width="130" height="40" as="geometry" />
        </mxCell>
        <mxCell id="NK0yrRHz17N-v0zj_TRn-7" style="edgeStyle=orthogonalEdgeStyle;rounded=0;orthogonalLoop=1;jettySize=auto;html=1;exitX=0;exitY=0.5;exitDx=0;exitDy=0;entryX=1;entryY=0;entryDx=0;entryDy=0;" edge="1" parent="1" source="S9Q4ZRymu22dXuJxWjsr-79" target="S9Q4ZRymu22dXuJxWjsr-80">
          <mxGeometry relative="1" as="geometry" />
        </mxCell>
        <mxCell id="S9Q4ZRymu22dXuJxWjsr-79" value="targetDestroyed=false&lt;br&gt;i=0" style="rounded=0;whiteSpace=wrap;html=1;" vertex="1" parent="1">
          <mxGeometry x="391" y="530" width="129" height="40" as="geometry" />
        </mxCell>
        <mxCell id="S9Q4ZRymu22dXuJxWjsr-85" style="edgeStyle=orthogonalEdgeStyle;rounded=0;orthogonalLoop=1;jettySize=auto;html=1;exitX=0.5;exitY=1;exitDx=0;exitDy=0;entryX=0.5;entryY=0;entryDx=0;entryDy=0;" edge="1" parent="1" source="S9Q4ZRymu22dXuJxWjsr-80" target="S9Q4ZRymu22dXuJxWjsr-61">
          <mxGeometry relative="1" as="geometry" />
        </mxCell>
        <mxCell id="S9Q4ZRymu22dXuJxWjsr-93" value="Yes" style="edgeLabel;html=1;align=center;verticalAlign=middle;resizable=0;points=[];" vertex="1" connectable="0" parent="S9Q4ZRymu22dXuJxWjsr-85">
          <mxGeometry x="-0.5907" y="1" relative="1" as="geometry">
            <mxPoint x="1" y="3" as="offset" />
          </mxGeometry>
        </mxCell>
        <mxCell id="NK0yrRHz17N-v0zj_TRn-15" style="edgeStyle=orthogonalEdgeStyle;rounded=0;orthogonalLoop=1;jettySize=auto;html=1;exitX=1;exitY=0.5;exitDx=0;exitDy=0;entryX=0.5;entryY=0;entryDx=0;entryDy=0;" edge="1" parent="1" source="S9Q4ZRymu22dXuJxWjsr-80" target="NK0yrRHz17N-v0zj_TRn-14">
          <mxGeometry relative="1" as="geometry">
            <Array as="points">
              <mxPoint x="348" y="590" />
              <mxPoint x="470" y="590" />
              <mxPoint x="470" y="720" />
              <mxPoint x="431" y="720" />
            </Array>
          </mxGeometry>
        </mxCell>
        <mxCell id="S9Q4ZRymu22dXuJxWjsr-80" value="i &amp;lt; 3" style="rhombus;whiteSpace=wrap;html=1;" vertex="1" parent="1">
          <mxGeometry x="272" y="510" width="76" height="80" as="geometry" />
        </mxCell>
        <mxCell id="S9Q4ZRymu22dXuJxWjsr-92" style="edgeStyle=orthogonalEdgeStyle;rounded=0;orthogonalLoop=1;jettySize=auto;html=1;exitX=1;exitY=0.5;exitDx=0;exitDy=0;" edge="1" parent="1">
          <mxGeometry relative="1" as="geometry">
            <mxPoint x="348.16666666666674" y="429.83333333333337" as="targetPoint" />
            <mxPoint x="348" y="430.0000000000001" as="sourcePoint" />
          </mxGeometry>
        </mxCell>
        <mxCell id="Ym8gr36TQVnxN2LM8_iP-3" style="edgeStyle=orthogonalEdgeStyle;rounded=0;orthogonalLoop=1;jettySize=auto;html=1;exitX=0.5;exitY=0;exitDx=0;exitDy=0;entryX=0.5;entryY=1;entryDx=0;entryDy=0;" edge="1" parent="1" source="Ym8gr36TQVnxN2LM8_iP-1" target="S9Q4ZRymu22dXuJxWjsr-76">
          <mxGeometry relative="1" as="geometry" />
        </mxCell>
        <mxCell id="Ym8gr36TQVnxN2LM8_iP-1" value="robotLife=0" style="rounded=0;whiteSpace=wrap;html=1;" vertex="1" parent="1">
          <mxGeometry x="690" y="690" width="66" height="40" as="geometry" />
        </mxCell>
        <mxCell id="NK0yrRHz17N-v0zj_TRn-6" style="edgeStyle=orthogonalEdgeStyle;rounded=0;orthogonalLoop=1;jettySize=auto;html=1;exitX=0.5;exitY=0;exitDx=0;exitDy=0;entryX=1;entryY=1;entryDx=0;entryDy=0;" edge="1" parent="1" source="NK0yrRHz17N-v0zj_TRn-2" target="S9Q4ZRymu22dXuJxWjsr-80">
          <mxGeometry relative="1" as="geometry">
            <mxPoint x="423.66666666666674" y="590" as="targetPoint" />
            <Array as="points">
              <mxPoint x="424" y="610" />
              <mxPoint x="329" y="610" />
            </Array>
          </mxGeometry>
        </mxCell>
        <mxCell id="NK0yrRHz17N-v0zj_TRn-2" value="i = i+1" style="rounded=0;whiteSpace=wrap;html=1;" vertex="1" parent="1">
          <mxGeometry x="391" y="624" width="66" height="40" as="geometry" />
        </mxCell>
        <mxCell id="NK0yrRHz17N-v0zj_TRn-20" style="edgeStyle=orthogonalEdgeStyle;rounded=0;orthogonalLoop=1;jettySize=auto;html=1;exitX=1;exitY=0.5;exitDx=0;exitDy=0;entryX=0;entryY=0.5;entryDx=0;entryDy=0;" edge="1" parent="1" source="NK0yrRHz17N-v0zj_TRn-13" target="S9Q4ZRymu22dXuJxWjsr-73">
          <mxGeometry relative="1" as="geometry" />
        </mxCell>
        <mxCell id="NK0yrRHz17N-v0zj_TRn-13" value="Print &quot; All burst shots missed the target!&quot;" style="shape=parallelogram;perimeter=parallelogramPerimeter;whiteSpace=wrap;html=1;fixedSize=1;" vertex="1" parent="1">
          <mxGeometry x="380" y="850" width="120" height="60" as="geometry" />
        </mxCell>
        <mxCell id="NK0yrRHz17N-v0zj_TRn-16" style="edgeStyle=orthogonalEdgeStyle;rounded=0;orthogonalLoop=1;jettySize=auto;html=1;exitX=1;exitY=0.5;exitDx=0;exitDy=0;entryX=0;entryY=1;entryDx=0;entryDy=0;" edge="1" parent="1" source="NK0yrRHz17N-v0zj_TRn-14" target="S9Q4ZRymu22dXuJxWjsr-54">
          <mxGeometry relative="1" as="geometry">
            <Array as="points">
              <mxPoint x="506" y="590" />
              <mxPoint x="530" y="590" />
              <mxPoint x="530" y="490" />
            </Array>
          </mxGeometry>
        </mxCell>
        <mxCell id="NK0yrRHz17N-v0zj_TRn-19" value="No" style="edgeLabel;html=1;align=center;verticalAlign=middle;resizable=0;points=[];" vertex="1" connectable="0" parent="NK0yrRHz17N-v0zj_TRn-16">
          <mxGeometry x="-0.4345" relative="1" as="geometry">
            <mxPoint as="offset" />
          </mxGeometry>
        </mxCell>
        <mxCell id="NK0yrRHz17N-v0zj_TRn-17" style="edgeStyle=orthogonalEdgeStyle;rounded=0;orthogonalLoop=1;jettySize=auto;html=1;exitX=0.5;exitY=1;exitDx=0;exitDy=0;entryX=0.5;entryY=0;entryDx=0;entryDy=0;" edge="1" parent="1" source="NK0yrRHz17N-v0zj_TRn-14" target="NK0yrRHz17N-v0zj_TRn-13">
          <mxGeometry relative="1" as="geometry" />
        </mxCell>
        <mxCell id="NK0yrRHz17N-v0zj_TRn-18" value="Yes" style="edgeLabel;html=1;align=center;verticalAlign=middle;resizable=0;points=[];" vertex="1" connectable="0" parent="NK0yrRHz17N-v0zj_TRn-17">
          <mxGeometry x="-0.3363" y="-1" relative="1" as="geometry">
            <mxPoint as="offset" />
          </mxGeometry>
        </mxCell>
        <mxCell id="NK0yrRHz17N-v0zj_TRn-14" value="targetDestroyed = false" style="rhombus;whiteSpace=wrap;html=1;" vertex="1" parent="1">
          <mxGeometry x="356" y="755" width="150" height="50" as="geometry" />
        </mxCell>
      </root>
    </mxGraphModel>
  </diagram>
</mxfile>
